<?xml version="1.0" standalone="no"?><!DOCTYPE svg PUBLIC "-//W3C//DTD SVG 1.1//EN" "http://www.w3.org/Graphics/SVG/1.1/DTD/svg11.dtd"><svg t="1747191308831" class="icon" viewBox="0 0 1024 1024" version="1.1" xmlns="http://www.w3.org/2000/svg" p-id="5756" xmlns:xlink="http://www.w3.org/1999/xlink" width="200" height="200"><path d="M525.963636 93.090909c-230.4 0-418.909091 188.509091-418.909091 418.909091s188.509091 418.909091 418.909091 418.909091 418.909091-188.509091 418.909091-418.909091-188.509091-418.909091-418.909091-418.909091z m25.6 609.745455c0 20.945455-16.290909 37.236364-37.236363 37.236363h-4.654546c-20.945455 0-37.236364-16.290909-37.236363-37.236363v-2.327273c0-20.945455 16.290909-37.236364 37.236363-37.236364h4.654546c20.945455 0 37.236364 16.290909 37.236363 37.236364v2.327273z m44.218182-183.854546c-16.290909 11.636364-32.581818 23.272727-41.890909 41.890909-4.654545 9.309091-6.981818 23.272727-6.981818 34.909091s0 23.272727-6.981818 32.581818c-4.654545 6.981818-13.963636 11.636364-23.272728 13.963637-11.636364 0-20.945455-4.654545-27.927272-13.963637-9.309091-11.636364-4.654545-23.272727-6.981818-34.909091-2.327273-37.236364 13.963636-67.490909 44.218181-90.763636h2.327273c2.327273-2.327273 6.981818-4.654545 11.636364-6.981818 39.563636-27.927273 58.181818-58.181818 55.854545-86.109091-4.654545-37.236364-25.6-55.854545-65.163636-58.181818-39.563636-2.327273-65.163636 16.290909-81.454546 53.527273-6.981818 16.290909-23.272727 25.6-41.890909 20.945454-23.272727-4.654545-34.909091-27.927273-25.6-48.872727 25.6-62.836364 79.127273-90.763636 160.581818-88.436364 83.781818 4.654545 128 41.890909 134.981819 116.363637 0 39.563636-25.6 79.127273-81.454546 114.036363z" fill="#19E0C6" p-id="5757"></path></svg>