<svg xmlns="http://www.w3.org/2000/svg" xmlns:xlink="http://www.w3.org/1999/xlink" fill="none" version="1.1" width="14" height="14" viewBox="0 0 14 14"><defs><clipPath id="master_svg0_680_15729"><rect x="0" y="0" width="14" height="14" rx="0"/></clipPath></defs><g clip-path="url(#master_svg0_680_15729)"><g><path d="M3.11068375,4.277571875L3.11068375,3.888671875L1.94400375,3.888671875C1.29517975,3.888671875,0.77734375,4.4126618749999995,0.77734375,5.059031875L0.77734375,8.940551875C0.77734375,9.591101875,1.2996777499999999,10.110911875,1.94400375,10.110911875L3.11068375,10.110911875L3.11068375,4.277571875ZM3.88844375,9.955351875L6.99956375,12.444271875L6.99956375,1.555349875L3.88844375,4.0442318749999995L3.88844375,9.955351875ZM3.11068375,9.333131875L3.11068375,10.110911875L6.58767375,13.008371875C7.24200375,13.553671875,7.77734375,13.305071875,7.77734375,12.448071875L7.77734375,1.5515218750000002C7.77734375,0.694048825,7.24471375,0.443648875,6.58767375,0.991179875L3.11068375,3.888671875L3.11068375,4.6664618749999995L2.3328837499999997,4.6664618749999995C1.90035375,4.6664618749999995,1.55512275,5.011461875,1.55512275,5.437071875L1.55512275,8.562511875C1.55512275,8.982381875,1.90334375,9.333131875,2.33290375,9.333131875L3.11068375,9.333131875ZM9.33293375,4.077401875L12.63274375,0.777556375L13.18274375,1.327534875L9.88289375,4.627381875L9.33293375,4.077401875ZM9.33293375,9.883091875L12.63274375,13.182971875L13.18274375,12.632971875L9.88289375,9.333111875L9.33293375,9.883091875ZM9.33290375,6.222011875L13.22174375,6.222011875L13.22174375,6.999791875L9.33290375,6.999791875L9.33290375,6.222011875Z" fill="#C8C8C8" fill-opacity="1"/></g></g></svg>