<?xml version="1.0" standalone="no"?><!DOCTYPE svg PUBLIC "-//W3C//DTD SVG 1.1//EN" "http://www.w3.org/Graphics/SVG/1.1/DTD/svg11.dtd"><svg t="1753066402684" class="icon" viewBox="0 0 1024 1024" version="1.1" xmlns="http://www.w3.org/2000/svg" p-id="1083" xmlns:xlink="http://www.w3.org/1999/xlink" width="32" height="32"><path d="M512 25.6C243.712 25.6 25.6 243.712 25.6 512S243.712 998.4 512 998.4 998.4 780.288 998.4 512 780.288 25.6 512 25.6z m0 873.472c-212.992 0-387.072-174.08-387.072-387.072 0-212.992 174.08-387.072 387.072-387.072 214.016 0 387.072 174.08 387.072 387.072 0 212.992-174.08 387.072-387.072 387.072z m0 0" p-id="1084"></path><path d="M550.912 288.768c-9.216-9.216-20.48-13.312-32.768-14.336h-8.192c-12.288 0-24.576 5.12-32.768 14.336L307.2 458.752c-19.456 19.456-19.456 51.2 0 69.632 19.456 19.456 50.176 19.456 69.632 0l84.992-84.992v256c0 27.648 22.528 49.152 49.152 49.152h4.096c27.648 0 49.152-22.528 49.152-49.152v-256l84.992 84.992c19.456 19.456 50.176 19.456 69.632 0 19.456-19.456 19.456-50.176 0-69.632L550.912 288.768z m0 0" p-id="1085"></path></svg>